HIERARCHY
ROOT Hips
{
	OFFSET 0.000000 0.000000 0.000000
	CHANNELS 6 Xposition Yposition Zposition Xrotation Yrotation Zrotation
	JOINT LeftUpLeg_virtual
	{
		OFFSET 0.000000 0.000000 0.000000
		CHANNELS 3 Xrotation Yrotation Zrotation
		JOINT LeftUpLeg
		{
			OFFSET 11.394100 -6.187798 -0.413800
			CHANNELS 3 Xrotation Yrotation Zrotation
			JOINT LeftLeg
			{
				OFFSET 0.430247 -32.302673 3.732800
				CHANNELS 3 Xrotation Yrotation Zrotation
				JOINT LeftFoot
				{
					OFFSET -0.430247 -48.264931 -6.423300
					CHANNELS 3 Xrotation Yrotation Zrotation
					JOINT LeftToeBase
					{
						OFFSET 4.230900 -16.068199 23.438400
						CHANNELS 3 Xrotation Yrotation Zrotation
						JOINT LeftToe_End
						{
							OFFSET 4.510700 0.695400 19.974600
							CHANNELS 3 Xrotation Yrotation Zrotation
							End Site
							{
								OFFSET 0 0 0
							}
						}
					}
				}
			}
		}
	}
	JOINT RightUpLeg_virtual
	{
		OFFSET 0.000000 0.000000 0.000000
		CHANNELS 3 Xrotation Yrotation Zrotation
		JOINT RightUpLeg
		{
			OFFSET -11.333700 -6.187798 -0.413800
			CHANNELS 3 Xrotation Yrotation Zrotation
			JOINT RightLeg
			{
				OFFSET -0.430392 -32.302628 3.733000
				CHANNELS 3 Xrotation Yrotation Zrotation
				JOINT RightFoot
				{
					OFFSET 0.430392 -48.264973 -6.423500
					CHANNELS 3 Xrotation Yrotation Zrotation
					JOINT RightToeBase
					{
						OFFSET -4.230900 -16.068199 23.438400
						CHANNELS 3 Xrotation Yrotation Zrotation
						JOINT RightToe_End
						{
							OFFSET -4.510700 0.695400 19.974600
							CHANNELS 3 Xrotation Yrotation Zrotation
							End Site
							{
								OFFSET 0 0 0
							}
						}
					}
				}
			}
		}
	}
	JOINT Spine_virtual
	{
		OFFSET 0.000000 0.000000 0.000000
		CHANNELS 3 Xrotation Yrotation Zrotation
		JOINT Spine
		{
			OFFSET -0.002400 12.777504 0.315300
			CHANNELS 3 Xrotation Yrotation Zrotation
			JOINT Spine1
			{
				OFFSET -0.002067 5.816869 0.032633
				CHANNELS 3 Xrotation Yrotation Zrotation
				JOINT Spine1_split
				{
					OFFSET -0.002067 5.816869 0.032633
					CHANNELS 3 Xrotation Yrotation Zrotation
					JOINT Spine2
					{
						OFFSET -0.002067 5.816869 0.032633
						CHANNELS 3 Xrotation Yrotation Zrotation
						JOINT Neck_virtual
						{
							OFFSET 0.000000 0.000000 0.000000
							CHANNELS 3 Xrotation Yrotation Zrotation
							JOINT Neck
							{
								OFFSET -0.003700 21.199493 -0.826900
								CHANNELS 3 Xrotation Yrotation Zrotation
								JOINT Head
								{
									OFFSET 0.000000 20.442200 4.834800
									CHANNELS 3 Xrotation Yrotation Zrotation
									JOINT HeadTop_End
									{
										OFFSET 0.000000 34.668396 4.968400
										CHANNELS 3 Xrotation Yrotation Zrotation
										End Site
										{
											OFFSET 0 0 0
										}
									}
								}
							}
						}
						JOINT LeftShoulder_virtual
						{
							OFFSET 0.000000 0.000000 0.000000
							CHANNELS 3 Xrotation Yrotation Zrotation
							JOINT LeftShoulder
							{
								OFFSET 3.288150 8.794197 -1.372250
								CHANNELS 3 Xrotation Yrotation Zrotation
								JOINT LeftShoulder_split
								{
									OFFSET 3.288150 8.794197 -1.372250
									CHANNELS 3 Xrotation Yrotation Zrotation
									JOINT LeftArm
									{
										OFFSET 11.953299 -2.279007 -0.146200
										CHANNELS 3 Xrotation Yrotation Zrotation
										JOINT LeftForeArm
										{
											OFFSET 18.448900 0.000000 0.000000
											CHANNELS 3 Xrotation Yrotation Zrotation
											JOINT LeftHand
											{
												OFFSET 29.527798 0.000000 0.000000
												CHANNELS 3 Xrotation Yrotation Zrotation
												End Site
												{
													OFFSET 0 0 0
												}
											}
										}
									}
								}
							}
						}
						JOINT RightShoulder_virtual
						{
							OFFSET 0.000000 0.000000 0.000000
							CHANNELS 3 Xrotation Yrotation Zrotation
							JOINT RightShoulder
							{
								OFFSET -3.249400 8.794197 -1.372250
								CHANNELS 3 Xrotation Yrotation Zrotation
								JOINT RightShoulder_split
								{
									OFFSET -3.249400 8.794197 -1.372250
									CHANNELS 3 Xrotation Yrotation Zrotation
									JOINT RightArm
									{
										OFFSET -11.953299 -2.279007 -0.146200
										CHANNELS 3 Xrotation Yrotation Zrotation
										JOINT RightForeArm
										{
											OFFSET -18.448900 0.000000 0.000000
											CHANNELS 3 Xrotation Yrotation Zrotation
											JOINT RightHand
											{
												OFFSET -29.527802 0.000000 0.000000
												CHANNELS 3 Xrotation Yrotation Zrotation
												End Site
												{
													OFFSET 0 0 0
												}
											}
										}
									}
								}
							}
						}
					}
				}
			}
		}
	}
}
MOTION
Frames: 8
Frame Time: 0.03333333
-5.039434 96.072235 -9.660633 0.000000 0.000000 0.000000 -4.154197 -7.843858 2.561516 -25.617391 5.877050 6.144201 32.977120 9.845827 -0.872673 -3.459770 -0.214052 -2.105442 1.482716 0.198474 -0.056556 0.000000 0.000000 0.000000 -3.654745 -5.655132 2.739253 -12.285442 -13.819890 -13.186264 28.785836 -1.919475 -5.513556 -10.952531 -2.825682 11.968435 -5.663969 -0.631183 0.801783 0.000000 0.000000 0.000000 -5.387228 -4.119967 0.986260 8.934670 3.166655 -3.833308 1.850368 0.529012 -1.135005 0.714447 0.937332 0.103438 0.000000 0.000000 0.000000 1.167516 0.076790 -0.152372 -4.762384 -1.076992 1.530268 8.023165 3.997123 -4.435010 0.000000 0.000000 0.000000 0.631005 0.413543 -0.870494 0.335932 3.277790 0.257019 -2.510449 -2.766396 0.369059 -13.041480 -4.919784 -65.525707 -1.760853 -34.394087 0.971943 0.000000 0.000000 0.000000 2.403600 0.199495 -0.609197 4.533806 12.236099 -5.794947 -0.942380 0.506498 -1.831423 -1.146140 2.619648 76.274307 -0.579607 36.270121 -0.059158 0.000000 0.000000 0.000000 
-5.221870 96.067825 -9.883244 0.000000 0.000000 0.000000 -3.898681 -7.575569 2.664383 -25.643450 5.911670 6.086642 33.021656 9.829976 -0.865365 -3.397564 -0.115956 -2.217411 1.591843 0.158790 0.027214 0.000000 0.000000 0.000000 -3.509863 -5.712279 2.809110 -12.565970 -13.837799 -13.217241 28.781649 -2.080700 -5.553924 -11.321786 -2.814281 11.941470 -5.271696 -0.552728 0.598961 0.000000 0.000000 0.000000 -4.981966 -4.323520 1.200769 8.981733 3.070127 -4.000071 1.828489 0.458211 -1.160158 0.722697 1.117628 -0.072892 0.000000 0.000000 0.000000 1.231085 0.043432 -0.172565 -4.773215 -0.919706 1.664557 7.793926 4.170640 -4.736999 0.000000 0.000000 0.000000 0.722837 0.352365 -0.866114 0.368220 3.152362 0.255561 -2.401589 -3.092353 0.440562 -13.449047 -4.882793 -65.454393 -1.929151 -35.063408 0.751784 0.000000 0.000000 0.000000 2.426671 0.135051 -0.619141 4.514360 12.396140 -5.710526 -0.986991 0.126034 -1.825981 -0.807409 2.459301 76.215854 -0.662344 36.399895 0.070021 0.000000 0.000000 0.000000 
-5.423206 96.101242 -10.170269 0.000000 0.000000 0.000000 -3.557853 -7.404189 2.584534 -25.871109 6.020671 6.233451 32.879902 9.839534 -0.900878 -3.271764 0.273827 -2.466539 1.796589 0.117297 0.014542 0.000000 0.000000 0.000000 -3.260007 -5.998834 2.704389 -13.118668 -13.744147 -13.161251 28.905914 -2.099439 -5.528607 -11.665611 -2.797539 12.307439 -4.957610 -0.512628 0.438584 0.000000 0.000000 0.000000 -4.370704 -4.853884 1.347181 9.206821 2.982725 -4.151546 1.814815 0.424460 -1.211450 0.789182 1.370301 -0.150663 0.000000 0.000000 0.000000 1.308175 0.059807 -0.245980 -4.814437 -0.648588 1.794997 7.095402 4.525932 -5.021101 0.000000 0.000000 0.000000 0.836841 0.353315 -0.870606 0.384562 2.941382 0.354622 -2.159496 -3.216859 0.459772 -13.949807 -5.022865 -65.305713 -1.754698 -35.657064 0.739489 0.000000 0.000000 0.000000 2.461814 0.111313 -0.636852 4.448238 12.464315 -5.712786 -0.968669 -0.034209 -1.829956 -0.249400 2.009365 76.177995 -0.757108 36.767332 0.166390 0.000000 0.000000 0.000000 
-5.586503 96.140106 -10.441151 0.000000 0.000000 0.000000 -3.147882 -7.389466 2.331005 -26.247717 6.262706 6.583554 32.546186 9.991978 -1.025798 -3.168101 1.004604 -2.680482 2.087770 0.081135 -0.137694 0.000000 0.000000 0.000000 -2.913830 -6.511766 2.420459 -13.959623 -13.569416 -13.015872 29.268255 -1.992344 -5.438172 -11.998108 -2.755269 12.876655 -4.602634 -0.510559 0.404776 0.000000 0.000000 0.000000 -3.689600 -5.643928 1.381496 9.587960 2.904297 -4.268703 1.828881 0.436716 -1.257805 0.854161 1.614491 -0.170005 0.000000 0.000000 0.000000 1.432188 0.133767 -0.341123 -4.891111 -0.317497 1.856758 5.941383 4.946313 -5.217576 0.000000 0.000000 0.000000 0.996378 0.419746 -0.858646 0.388957 2.673645 0.541899 -1.965330 -3.071818 0.383285 -14.612677 -5.328513 -65.250546 -1.266453 -35.776435 0.951118 0.000000 0.000000 0.000000 2.534909 0.137499 -0.641375 4.346713 12.463007 -5.881488 -0.973432 0.040290 -1.842268 0.397879 1.432681 76.228681 -0.810306 37.215379 0.184865 0.000000 0.000000 0.000000 
-5.734047 96.182648 -10.684059 0.000000 0.000000 0.000000 -2.636405 -7.698632 1.955573 -26.696073 6.542868 7.105608 32.203574 10.305452 -1.283789 -3.143823 2.072439 -2.805247 2.430403 0.060996 -0.389228 0.000000 0.000000 0.000000 -2.455816 -7.288390 2.018532 -15.176117 -13.279516 -12.881957 29.952425 -1.783487 -5.281901 -12.321870 -2.615888 13.427763 -3.912684 -0.526521 0.564272 0.000000 0.000000 0.000000 -3.025357 -6.639166 1.290966 10.122925 2.840794 -4.326305 1.881963 0.496202 -1.273342 0.851628 1.677105 -0.060037 0.000000 0.000000 0.000000 1.612450 0.268928 -0.422409 -5.031372 0.026186 1.802269 4.363015 5.308670 -5.291156 0.000000 0.000000 0.000000 1.200258 0.542789 -0.808340 0.382842 2.347528 0.725291 -1.921078 -2.876622 0.339164 -15.502957 -5.712007 -65.264466 -0.599395 -35.245292 1.320899 0.000000 0.000000 0.000000 2.649745 0.215290 -0.614354 4.229490 12.415830 -6.320215 -0.958416 0.268034 -1.733301 1.031091 0.934540 76.299531 -0.770026 37.569312 0.085489 0.000000 0.000000 0.000000 
-5.871764 96.199501 -10.989861 0.000000 0.000000 0.000000 -2.036298 -8.407183 1.532654 -27.161234 6.727092 7.713130 32.073469 10.726383 -1.672682 -3.237796 3.383917 -2.804323 2.775278 0.055487 -0.649469 0.000000 0.000000 0.000000 -1.870506 -8.403160 1.585345 -16.917593 -12.875117 -12.877216 31.017665 -1.446186 -5.063872 -12.482795 -2.302044 13.910250 -2.965682 -0.525339 0.872149 0.000000 0.000000 0.000000 -2.455940 -7.836489 1.060738 10.772055 2.785485 -4.312632 1.971964 0.601732 -1.251143 0.695255 1.613998 0.128156 0.000000 0.000000 0.000000 1.844353 0.443543 -0.467380 -5.269121 0.333670 1.618006 2.433854 5.491127 -5.202465 0.000000 0.000000 0.000000 1.456913 0.705940 -0.721380 0.378018 1.992299 0.861379 -1.941345 -2.729091 0.351414 -16.510092 -6.056887 -65.212262 0.024254 -34.056775 1.679724 0.000000 0.000000 0.000000 2.810998 0.327366 -0.555988 4.118689 12.339145 -7.052340 -0.960937 0.596130 -1.480902 1.687109 0.704415 76.358154 -0.594224 37.739643 -0.144330 0.000000 0.000000 0.000000 
-5.997860 96.174034 -11.439857 0.000000 0.000000 0.000000 -1.400546 -9.557182 1.157885 -27.618415 6.653711 8.310225 32.232107 11.124750 -2.154800 -3.472453 4.839622 -2.675575 3.055924 0.063452 -0.854731 0.000000 0.000000 0.000000 -1.164665 -9.769749 1.218826 -19.243740 -12.288546 -13.039956 32.329372 -0.847666 -4.832578 -12.295107 -1.734177 14.581960 -2.236038 -0.482180 1.133151 0.000000 0.000000 0.000000 -1.864545 -9.076724 0.742670 11.525988 2.719965 -4.227368 2.096715 0.739946 -1.210675 0.559019 1.336804 0.286702 0.000000 0.000000 0.000000 2.106478 0.642702 -0.473852 -5.618780 0.569154 1.358332 0.316541 5.502437 -4.994029 0.000000 0.000000 0.000000 1.761838 0.875539 -0.611250 0.385231 1.699552 0.910380 -1.913212 -2.798915 0.523869 -17.339683 -6.284396 -64.862454 0.370086 -32.325653 1.831349 0.000000 0.000000 0.000000 3.012857 0.466805 -0.488624 4.070785 12.284607 -8.001314 -0.927757 0.993708 -1.103765 2.450985 0.670671 76.237718 -0.312071 37.746371 -0.414819 0.000000 0.000000 0.000000 
-6.102421 96.088310 -12.079838 0.000000 0.000000 0.000000 -0.732661 -11.057020 0.907561 -28.124219 6.208545 8.803825 32.629808 11.369099 -2.678314 -3.741213 6.320812 -2.552660 3.223690 0.078003 -1.001274 0.000000 0.000000 0.000000 -0.335262 -11.246816 1.008294 -22.011183 -11.516201 -13.295053 33.753091 0.049208 -4.629958 -11.776662 -0.944435 15.492691 -1.903583 -0.370869 1.207173 0.000000 0.000000 0.000000 -1.187179 -10.290448 0.427430 12.399739 2.612237 -4.063852 2.235983 0.899964 -1.176863 0.538392 0.964822 0.280234 0.000000 0.000000 0.000000 2.372793 0.843382 -0.453495 -6.068329 0.684884 1.114487 -1.788040 5.324910 -4.727378 0.000000 0.000000 0.000000 2.058123 1.041127 -0.499530 0.396104 1.551279 0.880334 -1.773399 -3.117401 0.855919 -17.569415 -6.357500 -63.929409 0.298364 -30.425467 1.647496 0.000000 0.000000 0.000000 3.237819 0.608756 -0.435041 4.100761 12.290386 -9.055883 -0.711570 1.329056 -0.717311 3.349254 0.468005 75.837926 0.006625 37.692303 -0.648560 0.000000 0.000000 0.000000 
